<svg xmlns="http://www.w3.org/2000/svg" xmlns:xlink="http://www.w3.org/1999/xlink" viewBox="0,0,256,256" width="48px" height="48px" fill-rule="nonzero" fill="none"><defs><linearGradient x1="2.9289" y1="2.929" x2="17.0711" y2="17.071" gradientUnits="userSpaceOnUse" id="color-1"><stop offset="0" stop-color="#21ad64"></stop><stop offset="1" stop-color="#088242"></stop></linearGradient></defs><g fill="none" fill-rule="nonzero" stroke="none" stroke-width="1" stroke-linecap="butt" stroke-linejoin="miter" stroke-miterlimit="10" stroke-dasharray="" stroke-dashoffset="0" font-family="none" font-weight="none" font-size="none" text-anchor="none" style="mix-blend-mode: normal"><g transform="scale(5.33333,5.33333)"><path d="M24,44c-0.552,0 -1,-0.448 -1,-1c0,-0.552 0.448,-1 1,-1z" fill="#48a81f"></path><path d="M25,43c0,0.552 -0.448,1 -1,1v-2c0.552,0 1,0.448 1,1z" fill="#0d7e10"></path><circle cx="42" cy="11" r="1" fill="#24ab23"></circle><circle cx="6" cy="11" r="1" fill="#5ad152"></circle><path d="M24,43l0.427,0.907c0,0 15.144,-7.9 18.08,-19.907h-18.507z" fill="#0d7e10"></path><path d="M43,11l-1,-1c-11.122,0 -11.278,-6 -18,-6v20h18.507c0.315,-1.288 0.493,-2.622 0.493,-4c0,-3.144 0,-9 0,-9z" fill="#24ab23"></path><path d="M24,43l-0.427,0.907c0,0 -15.144,-7.9 -18.08,-19.907h18.507z" fill="#48a81f"></path><path d="M5,11l1,-1c11.122,0 11.278,-6 18,-6v20h-18.507c-0.315,-1.288 -0.493,-2.622 -0.493,-4c0,-3.144 0,-9 0,-9z" fill="#5ad152"></path></g></g><g fill="none" fill-rule="nonzero" stroke="none" stroke-width="1" stroke-linecap="butt" stroke-linejoin="miter" stroke-miterlimit="10" stroke-dasharray="" stroke-dashoffset="0" font-family="none" font-weight="none" font-size="none" text-anchor="none" style="mix-blend-mode: normal"><g transform="translate(161.96429,155.64286) scale(4,4)" id="overlay"><path transform="translate(10,10)" d="M-10,0c0,-5.52285 4.47715,-10 10,-10c5.52285,0 10,4.47715 10,10c0,5.52285 -4.47715,10 -10,10c-5.52285,0 -10,-4.47715 -10,-10z" fill="url(#color-1)"></path><path d="M8.646,14.354l-4,-4c-0.195,-0.195 -0.195,-0.512 0,-0.707l0.707,-0.707c0.195,-0.195 0.512,-0.195 0.707,0l2.94,2.939l5.439,-5.439c0.195,-0.195 0.512,-0.195 0.707,0l0.707,0.707c0.195,0.195 0.195,0.512 0,0.707l-6.5,6.5c-0.195,0.195 -0.512,0.195 -0.707,0z" fill="#ffffff"></path></g></g></svg>